<?xml version="1.0" standalone="no"?>
<!DOCTYPE svg PUBLIC "-//W3C//DTD SVG 20010904//EN"
 "http://www.w3.org/TR/2001/REC-SVG-20010904/DTD/svg10.dtd">
<svg version="1.0" xmlns="http://www.w3.org/2000/svg"
 width="800.000000pt" height="760.000000pt" viewBox="0 0 800.000000 760.000000"
 preserveAspectRatio="xMidYMid meet">
<metadata>
Created by potrace 1.11, written by Peter Selinger 2001-2013
</metadata>
<g transform="translate(0.000000,760.000000) scale(0.100000,-0.100000)"
fill="#000000" stroke="none">
<path d="M0 7151 l0 -449 68 13 c37 7 69 9 72 5 3 -5 99 -312 215 -684 116
-371 212 -673 214 -670 2 2 12 321 21 709 10 388 20 708 23 712 11 10 359 55
367 46 4 -4 98 -312 210 -683 111 -371 206 -679 210 -683 4 -4 10 176 13 400
4 224 10 550 14 724 l6 315 177 25 178 25 -5 -76 c-3 -41 -28 -522 -57 -1067
-29 -546 -55 -995 -57 -998 -7 -7 -341 -46 -353 -42 -6 3 -105 309 -221 681
-116 371 -213 676 -216 676 -3 0 -9 -321 -13 -712 -5 -408 -12 -715 -17 -719
-12 -7 -368 -53 -373 -48 -3 2 -109 308 -236 679 -128 371 -234 677 -236 679
-2 2 -4 -1349 -4 -3002 l0 -3007 2705 0 2705 0 0 23 c-1 12 -63 461 -139 997
-75 536 -137 976 -136 977 0 1 159 23 353 48 374 48 406 49 511 13 190 -65
314 -245 328 -478 9 -160 -30 -274 -129 -374 -33 -32 -58 -59 -56 -61 2 -1 23
-10 48 -19 158 -61 283 -210 325 -387 19 -82 19 -246 -1 -329 -23 -97 -77
-202 -137 -263 -74 -76 -136 -102 -292 -125 l-130 -20 1023 -1 1022 -1 0 210
0 209 -63 -62 c-119 -117 -257 -168 -457 -168 -73 0 -137 5 -175 16 -238 62
-414 265 -525 605 -78 237 -105 426 -97 668 6 179 24 275 74 400 86 216 244
367 449 428 80 24 238 24 319 0 170 -50 318 -165 428 -333 l42 -64 3 2842 c1
1563 0 2844 -1 2846 -2 2 -281 2 -619 1 l-615 -3 393 -960 c217 -528 396 -965
398 -971 3 -7 -51 -19 -157 -33 -89 -13 -171 -25 -182 -27 -18 -4 -30 21 -110
227 -49 127 -95 233 -102 236 -7 3 -120 -10 -250 -29 l-238 -33 -26 -253 c-14
-139 -28 -254 -30 -255 -6 -5 -333 -45 -338 -41 -3 3 230 2001 246 2107 l6 37
-3187 0 -3186 0 0 -449z m5754 337 c3 -13 12 -83 19 -156 l15 -133 -249 -756
c-137 -416 -247 -759 -244 -761 3 -4 559 73 680 94 l31 5 -17 -176 c-9 -97
-19 -178 -21 -179 -6 -5 -1039 -148 -1043 -144 -2 1 -13 70 -25 151 l-21 148
255 757 c141 416 256 763 256 771 0 9 -8 11 -22 8 -51 -12 -648 -100 -651 -96
-5 5 21 340 26 346 4 3 946 138 994 142 7 1 15 -9 17 -21z m-1660 -269 c254
-86 394 -398 306 -680 -24 -79 -78 -160 -132 -199 l-40 -30 26 -10 c191 -72
320 -221 361 -415 44 -210 -12 -440 -141 -576 -83 -86 -129 -103 -385 -138
-415 -59 -564 -79 -567 -76 -4 4 -291 2059 -288 2062 1 2 153 23 337 48 361
48 417 49 523 14z m-1144 -274 c0 -163 0 -165 -22 -170 -13 -3 -139 -23 -282
-44 -142 -22 -261 -42 -264 -46 -7 -6 48 -457 57 -467 3 -3 111 9 240 28 129
19 235 33 237 31 5 -5 47 -328 43 -332 -2 -2 -105 -18 -229 -36 -124 -17 -228
-35 -233 -39 -8 -7 65 -536 76 -546 4 -4 144 12 312 36 169 23 309 40 311 37
11 -11 54 -341 45 -346 -12 -7 -961 -134 -965 -130 -2 2 -61 420 -130 929 -70
509 -135 971 -144 1027 -9 56 -14 104 -11 106 6 5 879 124 922 126 l37 1 0
-165z m4553 -2017 c3 -13 101 -472 218 -1021 163 -764 210 -1000 200 -1006
-20 -13 -302 -44 -311 -35 -6 8 -270 1342 -270 1368 0 5 -2 7 -5 4 -4 -4 -125
-1391 -125 -1434 0 -10 -287 -51 -295 -42 -2 2 -112 302 -245 668 -133 365
-245 671 -251 679 -6 11 -7 0 -4 -34 25 -223 124 -1369 119 -1374 -5 -5 -327
-42 -330 -38 -1 1 -27 443 -58 982 -31 539 -59 1007 -62 1040 l-6 60 215 31
215 30 227 -641 c125 -352 231 -644 236 -650 5 -5 9 3 9 20 0 17 20 318 45
670 25 352 45 649 45 661 0 20 13 23 208 51 114 17 210 31 213 32 4 0 9 -9 12
-21z m-1918 -310 c4 -29 66 -492 139 -1028 116 -855 130 -976 117 -981 -28
-10 -311 -42 -317 -36 -9 8 -294 2041 -287 2047 6 6 266 47 310 49 31 1 32 0
38 -51z m-595 -33 c0 -3 -88 -232 -196 -508 -107 -276 -193 -509 -191 -517 2
-8 167 -239 366 -514 200 -274 359 -502 354 -506 -6 -5 -399 -61 -424 -60 -3
0 -152 222 -330 494 -178 272 -325 488 -327 481 -2 -7 29 -241 68 -521 39
-279 69 -513 66 -519 -5 -14 -324 -61 -335 -49 -10 12 -285 2044 -277 2051 11
11 328 55 336 46 4 -4 33 -214 66 -465 32 -251 62 -454 65 -450 4 4 84 227
178 496 94 269 172 490 174 491 1 1 79 13 172 27 175 26 235 32 235 23z"/>
<path d="M3715 6864 c-49 -9 -91 -17 -92 -18 -3 -3 58 -460 62 -464 2 -2 70 6
152 18 145 21 149 22 186 58 26 25 43 54 54 92 30 102 -12 235 -94 297 -31 24
-47 28 -107 30 -39 1 -111 -5 -161 -13z"/>
<path d="M3863 6051 c-61 -9 -115 -20 -119 -24 -4 -4 10 -128 31 -277 l38
-270 26 0 c14 0 82 9 150 20 144 24 175 41 212 117 21 42 24 63 24 158 0 100
-2 115 -27 161 -33 62 -85 109 -135 123 -47 14 -62 13 -200 -8z"/>
<path d="M6600 7130 c0 -14 -11 -191 -25 -394 -14 -203 -23 -371 -22 -373 3
-3 309 38 315 42 4 4 -250 729 -259 740 -5 5 -9 -1 -9 -15z"/>
<path d="M7242 1964 c-60 -30 -96 -69 -129 -141 -45 -98 -55 -179 -50 -398 8
-299 52 -533 132 -701 51 -106 105 -166 182 -201 48 -22 65 -25 128 -21 222
14 318 232 287 648 -34 444 -152 742 -324 820 -65 29 -160 27 -226 -6z"/>
<path d="M5635 1705 c-44 -8 -86 -14 -92 -14 -18 -1 -17 -8 14 -254 l28 -219
50 7 c269 34 291 43 331 129 43 93 25 217 -44 297 -61 71 -117 81 -287 54z"/>
<path d="M5768 892 c-64 -10 -120 -21 -123 -24 -5 -5 56 -469 70 -534 l5 -21
117 18 c179 27 181 28 217 59 124 110 102 403 -37 485 -58 34 -110 37 -249 17z"/>
</g>
</svg>
